<?xml version="1.0" encoding="UTF-8" standalone="no"?>
<!-- Created with Inkscape (http://www.inkscape.org/) -->

<svg
   width="135.46666mm"
   height="135.46666mm"
   viewBox="0 0 135.46666 135.46666"
   version="1.1"
   id="svg1"
   inkscape:version="1.3.2 (091e20ef0f, 2023-11-25)"
   sodipodi:docname="Favicon-logo-512px.svg"
   xmlns:inkscape="http://www.inkscape.org/namespaces/inkscape"
   xmlns:sodipodi="http://sodipodi.sourceforge.net/DTD/sodipodi-0.dtd"
   xmlns="http://www.w3.org/2000/svg"
   xmlns:svg="http://www.w3.org/2000/svg">
  <sodipodi:namedview
     id="namedview1"
     pagecolor="#ffffff"
     bordercolor="#000000"
     borderopacity="0.25"
     inkscape:showpageshadow="2"
     inkscape:pageopacity="0.0"
     inkscape:pagecheckerboard="0"
     inkscape:deskcolor="#d1d1d1"
     inkscape:document-units="mm"
     showguides="false"
     inkscape:zoom="1.0062685"
     inkscape:cx="269.31182"
     inkscape:cy="322.97543"
     inkscape:window-width="1600"
     inkscape:window-height="864"
     inkscape:window-x="1400"
     inkscape:window-y="0"
     inkscape:window-maximized="1"
     inkscape:current-layer="layer1" />
  <defs
     id="defs1" />
  <g
     inkscape:label="Layer 1"
     inkscape:groupmode="layer"
     id="layer1">
    <g
       id="g20"
       transform="matrix(1.1535162,0,0,1.1535162,-10.026022,-12.152898)"
       style="fill:#f9f9f9">
      <path
         id="path4"
         style="fill:#f9f9f9;stroke-width:0.308771"
         d="M 63.041912,16.118284 19.67035,46.32966 24.148745,98.996334 71.998702,121.45163 115.37027,91.239652 110.89188,38.572978 Z m -23.54806,28.695259 h 37.942126 c 10.033891,0 18.110783,8.077495 18.110783,18.111388 V 92.755769 H 57.605842 c -10.033887,0 -18.11199,-8.076904 -18.11199,-18.110784 z" />
      <path
         style="fill:#f9f9f9;stroke-width:0.264583"
         id="path5"
         d="m 58.536773,60.90816 c -0.802282,-0.900338 -1.824029,-1.505757 -2.940946,-1.925005 -1.51945,-0.371031 -3.038531,0.0827 -4.070014,1.294614 -0.255178,0.299815 -0.443519,0.650623 -0.665277,0.975937 -0.838237,1.612071 -1.294923,3.481223 -0.75139,5.270862 0.103883,0.342051 0.275402,0.659784 0.413102,0.989674 0.774787,1.385829 2.063427,2.499056 3.632457,2.890454 0.329112,0.0821 0.671094,0.09926 1.006641,0.148889 1.411322,0.02249 2.695935,-0.443116 3.738309,-1.401948 0.226668,-0.2085 0.448302,-0.428935 0.621786,-0.683405 0.208225,-0.305435 0.342686,-0.655104 0.51403,-0.982655 0.587703,-1.584272 0.663586,-3.273428 0.511609,-4.939136 -0.0011,-0.09019 -0.272798,-1.698056 -0.342172,-1.691185 -0.663324,0.0657 -1.307645,0.259467 -1.96147,0.3892 0.197731,2.447284 0.421645,4.89168 0.575701,7.343301 0.03931,3.569655 0.163381,7.173047 -0.244149,10.729516 -0.05967,0.520782 -0.161774,1.035819 -0.24266,1.553731 -0.290081,0.706906 -0.413816,2.210607 -1.373637,2.473208 -0.150567,0.0412 -1.141209,-0.277979 -1.149234,-0.281471 -0.256106,-0.111496 -0.486034,-0.275421 -0.729051,-0.413129 -0.10236,-0.183986 -0.204716,-0.367974 -0.307073,-0.55196 -0.866164,-1.117928 -2.447153,0.10701 -1.580989,1.224939 v 0 c 0.326568,0.369615 0.653132,0.739227 0.979699,1.108839 0.414142,0.197308 0.803887,0.457282 1.242426,0.591918 0.964427,0.296095 1.933754,0.332915 2.856544,-0.169894 1.317922,-0.718106 1.648743,-2.396966 2.037901,-3.677317 0.08663,-0.567229 0.195016,-1.131559 0.259889,-1.701683 0.415372,-3.650443 0.291478,-7.348472 0.246391,-11.012215 -0.147955,-2.351231 -0.321773,-4.699974 -0.579491,-7.042066 -0.644019,0.01857 -1.289007,0.01582 -1.932059,0.05573 -0.0222,0.0013 0.01664,0.04135 0.02275,0.06275 0.01672,0.05855 0.03152,0.117644 0.04563,0.176876 0.07998,0.335793 0.140531,0.675966 0.183862,1.018434 0.127447,1.30301 0.08411,2.630477 -0.323218,3.885637 -0.06991,0.17468 -0.112003,0.363259 -0.209722,0.524044 -0.551595,0.907611 -1.596692,1.367705 -2.615359,1.425162 -0.193974,-0.01606 -0.391451,-0.0081 -0.581922,-0.0482 -1.037396,-0.21817 -1.935443,-0.920147 -2.472488,-1.811147 -0.09649,-0.202896 -0.214025,-0.397057 -0.289455,-0.608684 -0.448238,-1.257576 -0.08165,-2.613211 0.478796,-3.764976 0.586343,-1.010812 1.142648,-1.640872 2.379588,-1.46953 0.816996,0.268398 1.543413,0.746191 2.127967,1.379704 0.945975,1.051253 2.432669,-0.28656 1.486694,-1.33781 z" />
      <path
         style="fill:#f9f9f9;stroke-width:0.264583"
         id="path6"
         d="m 71.724506,61.462237 c -0.859356,-0.683813 -1.729393,-1.120582 -2.797019,-1.381562 -1.485625,-0.154336 -2.74838,0.54941 -3.570623,1.784155 -0.182229,0.273653 -0.309936,0.579927 -0.464905,0.869891 -0.690988,1.787361 -0.624549,3.778412 0.169127,5.532604 0.173337,0.383114 0.41624,0.730774 0.624359,1.096161 0.296656,0.313965 0.553423,0.671124 0.889965,0.941896 0.963166,0.774933 2.273348,1.23521 3.512757,1.177308 1.036394,-0.04842 1.379124,-0.280916 2.300565,-0.664001 0.320276,-0.234825 0.674185,-0.429601 0.960826,-0.704474 0.851099,-0.81616 1.487954,-2.020903 1.654668,-3.190991 0.157866,-1.107991 -0.0029,-1.597925 -0.176991,-2.674808 -0.413551,-1.404845 -0.154911,-0.761479 -0.740799,-1.943852 -0.651126,-1.255403 -2.426533,-0.334573 -1.775409,0.92083 v 0 c 0.423682,0.759431 0.21986,0.314052 0.545552,1.364374 0.119766,0.633989 0.272084,1.177856 0.212365,1.828787 -0.09411,1.025834 -0.677902,1.958231 -1.482217,2.567979 -1.046406,0.494586 -1.759754,0.705679 -2.893179,0.263708 -0.242575,-0.09459 -0.484095,-0.202615 -0.697153,-0.352272 -0.219813,-0.1544 -0.392237,-0.367125 -0.588357,-0.550687 -0.15308,-0.246894 -0.333748,-0.478685 -0.459242,-0.74068 -0.593194,-1.238414 -0.721527,-2.670323 -0.273,-3.967488 0.345241,-0.748345 0.886888,-1.599279 1.803672,-1.609265 0.825397,0.16964 1.445514,0.567267 2.107616,1.07746 1.16324,0.804281 2.300665,-0.840793 1.137422,-1.645073 z" />
      <path
         style="fill:#f9f9f9;stroke-width:0.264583"
         id="path7"
         d="m 78.279545,69.796837 c 0.02905,0.840954 0.239054,2.229305 1.059622,2.688389 0.296778,0.166036 0.654949,0.183361 0.982424,0.275045 0.306126,-0.125265 0.640125,-0.196959 0.918372,-0.375796 0.536834,-0.345041 0.900086,-1.135954 0.910642,-1.759924 0.0035,-0.208925 0.02514,-0.445476 -0.08897,-0.620516 -0.197183,-0.302446 -0.530074,-0.490347 -0.79511,-0.735521 -0.31066,0.059 -0.621323,0.117996 -0.931984,0.176993 -1.177372,0.783453 -0.0694,2.448507 1.107969,1.665055 v 0 c -0.256153,0.02273 -0.512307,0.04545 -0.768461,0.06818 -0.202634,-0.244811 -0.744847,-0.595968 -0.507378,-0.807161 0.228248,-0.202991 -0.07566,0.286371 -0.01561,0.335311 0.06728,0.05483 0.169642,0.03676 0.254465,0.05514 0.09384,0.08187 0.20578,0.146749 0.281509,0.245605 0.0164,0.0214 -0.06074,0.03948 -0.0786,0.01926 -0.265182,-0.299948 -0.296511,-0.756327 -0.331341,-1.131004 0.07005,-1.412478 -1.927495,-1.511543 -1.997543,-0.09906 z" />
      <path
         style="fill:#f9f9f9;stroke-width:0.264583"
         id="path8"
         d="m 81.502091,64.777352 c 1.006342,-1.052629 1.964393,-2.296768 2.438963,-3.695721 0.105571,-0.311205 0.153585,-0.639053 0.230375,-0.958583 -0.04255,-0.362936 0.02721,-0.757827 -0.127648,-1.088813 -0.647359,-1.383615 -2.099088,-1.640514 -3.459387,-1.52877 -0.447247,0.03674 -0.881716,0.167605 -1.322573,0.251407 -1.385744,0.282345 -0.986451,2.242079 0.399293,1.959737 v 0 c 0.795039,-0.177131 0.954591,-0.261401 1.729894,-0.267547 0.155493,-0.0013 0.30889,0.0543 0.464187,0.04637 0.07966,-0.0041 0.155171,-0.120163 0.224952,-0.08154 0.09151,0.05065 0.09161,0.188063 0.137411,0.282096 -0.03493,0.191627 -0.04508,0.389475 -0.104796,0.574879 -0.359786,1.117028 -1.121939,2.106334 -1.890064,2.969228 -1.087004,0.904666 0.192386,2.441924 1.279393,1.537258 z" />
    </g>
    <path
       id="path9"
       style="fill:#f9f9f9;stroke-width:0.264583"
       d="m 103.16476,114.12172 c -0.005,0.0187 -0.011,0.0404 -0.016,0.0589 0.002,-1.2e-4 0.004,1.2e-4 0.006,0 0.004,-0.0179 0.006,-0.0243 0.0134,-0.0537 -9.9e-4,-0.002 -0.002,-0.003 -0.003,-0.005 z m 0.45837,1.58388 c 0.002,0.0578 0.002,0.11252 0.004,0.17001 0.0101,-0.0249 0.0199,-0.0498 0.0305,-0.0744 0.004,-0.009 0.0172,-0.0417 0.0227,-0.0553 -0.0198,-0.0147 -0.0379,-0.0269 -0.0568,-0.0403 z m -1.80402,9.34982 c -0.049,0.001 -0.0968,0.012 -0.14418,0.0258 0.032,0.0136 0.0637,0.0298 0.0951,0.0476 0.0105,-1.8e-4 0.021,0.001 0.0315,5.1e-4 0.0252,-0.002 0.0428,-0.0743 0.0176,-0.0739 z" />
    <path
       style="fill:#f9f9f9;stroke-width:0.264583"
       id="path10"
       d="m 108.689,125.8566 c 0.15129,-2.28905 0.0777,-4.58608 0.10551,-6.87835 0.0258,-2.12517 0.0354,-1.93748 0.14304,-3.95057 0.0224,-0.40903 0.0447,-0.81805 0.0671,-1.22708 0.0772,-1.4121 -1.9198,-1.5213 -1.99702,-0.1092 v 0 c -0.0224,0.41002 -0.0448,0.82003 -0.0673,1.23005 -0.0334,0.63164 -0.0775,1.26281 -0.10028,1.89492 -0.10629,2.95167 0.0248,5.90818 -0.14272,8.85745 -0.12924,1.40829 1.86239,1.59107 1.99163,0.18278 z" />
    <path
       style="fill:#f9f9f9;stroke-width:0.264583"
       id="path11"
       d="m 114.3088,119.89437 c -0.69781,-0.7181 -1.73795,-0.93763 -2.68133,-0.58898 -0.23323,0.0862 -0.44033,0.23112 -0.6605,0.34668 -0.17586,0.14595 -0.3707,0.27167 -0.52759,0.43785 -0.79828,0.84559 -1.12386,2.11406 -0.94496,3.2535 0.0533,0.33931 0.18692,0.66103 0.28038,0.99154 0.39526,0.86815 0.90684,1.69623 1.8611,2.03635 0.2956,0.10536 0.6204,0.17672 0.93156,0.13605 1.03092,-0.13477 1.1732,-0.51291 1.83854,-1.2013 0.69566,-1.12465 1.05455,-2.38348 0.86932,-3.70845 -0.0328,-0.23478 -0.11159,-0.46081 -0.16739,-0.69121 -0.36813,-1.36546 -2.29918,-0.84484 -1.93105,0.52062 v 0 c 0.29148,0.88321 0.12426,1.76489 -0.29473,2.58371 -0.0627,0.11058 -0.14167,0.21343 -0.18823,0.33174 -0.0206,0.0523 0.023,0.12186 -0.009,0.16836 -0.0319,0.047 -0.0978,0.0679 -0.15441,0.0719 -0.45475,0.0326 -0.66683,-0.55396 -0.84878,-0.84949 -0.0636,-0.16747 -0.14873,-0.32829 -0.1909,-0.50241 -0.15551,-0.64207 -0.0127,-1.4023 0.48384,-1.85145 0.24655,-0.19611 0.58412,-0.40828 0.85043,-0.14344 0.94865,1.04884 2.43193,-0.29276 1.48328,-1.3416 z" />
    <path
       style="fill:#f9f9f9;stroke-width:0.264583"
       id="path12"
       d="m 119.59608,120.00114 c -0.67038,-0.30873 -1.4332,-0.36621 -2.10661,-0.0134 -0.18135,0.095 -0.33939,0.22913 -0.50909,0.34369 -0.94263,0.94489 -1.2036,2.0795 -1.09994,3.39283 0.0219,0.27767 0.0844,0.55063 0.12657,0.82594 0.111,0.27675 0.19082,0.56813 0.33298,0.83024 0.46365,0.85485 1.28734,1.51894 2.33661,1.3265 0.96236,-0.1765 1.22037,-0.73271 1.78022,-1.41114 0.86022,-1.43362 1.01054,-3.07407 1.02163,-4.70632 -5.3e-4,-0.066 0.0647,-0.19813 -10e-4,-0.19799 -0.6678,10e-4 -1.35736,-0.002 -1.99319,0.20203 -0.13815,0.0444 0.007,0.29012 0.008,0.43521 0.008,1.2521 -0.0154,2.50482 -0.0252,3.75684 -0.017,2.04531 0.0198,4.09038 0.0219,6.13566 0.002,1.41421 2.00149,1.41211 2,-0.002 v 0 c -0.002,-2.03935 -0.0386,-4.0785 -0.022,-6.11789 0.01,-1.27041 0.0342,-2.54154 0.0249,-3.81203 -0.001,-0.15762 0.14187,-0.4289 -0.01,-0.47279 -2.06617,-0.59897 -2.00985,-0.73915 -2.00402,0.0611 -0.006,1.205 -0.0628,2.43851 -0.6305,3.53019 -0.0651,0.11891 -0.26562,0.40942 -0.27393,0.60191 -0.003,0.0616 0.0862,0.1441 0.037,0.18119 -0.19438,0.14648 -0.5971,-0.5693 -0.63183,-0.67308 -0.14647,-0.75706 -0.23431,-1.60869 0.20317,-2.28773 0.14356,-0.18284 0.24498,-0.24482 0.47419,-0.16327 1.24845,0.66435 2.18799,-1.10123 0.93954,-1.76558 z" />
    <path
       style="fill:#f9f9f9;stroke-width:0.264583"
       id="path13"
       d="m 123.12405,125.17066 c 0.0105,0.74757 0.0499,1.83625 1.1943,1.87806 0.83719,0.0306 0.97209,-0.62357 1.15558,-1.13363 0.1049,-0.6539 0.0971,-0.23752 -0.27409,-1.21893 -1.02215,-0.97734 -2.40432,0.46821 -1.38217,1.44555 v 0 c -0.27663,-0.82814 -0.35201,-1.09394 -0.26401,-0.7857 0.28326,0.0518 0.52949,-0.38165 0.80756,-0.30683 0.36274,0.0976 0.54387,0.5206 0.84263,0.74831 0.0388,0.0296 -0.0333,-0.092 -0.044,-0.13958 -0.0426,-0.19091 -0.0324,-0.23838 -0.0363,-0.4423 0.0318,-1.41386 -1.96772,-1.4588 -1.9995,-0.045 z" />
    <path
       style="fill:#f9f9f9;stroke-width:0.264583"
       id="path14"
       d="m 124.76559,122.49062 c 0.30423,-1.89564 0.27295,-3.81909 0.26175,-5.73236 -0.003,-0.29777 -0.015,-1.61692 -0.0256,-1.99415 -0.005,-0.17978 0.005,-0.36187 -0.026,-0.53895 -0.0306,-0.17186 0.0128,-0.53162 -0.15865,-0.49906 -0.69758,0.13246 -1.28832,0.59741 -1.93248,0.89612 -0.159,1.40525 1.82832,1.63011 1.98732,0.22487 v 0 c -0.60409,-0.0554 -1.22755,-0.005 -1.81227,-0.1663 -0.11765,-0.0325 -0.0268,-0.46616 -0.0815,-0.35701 -0.0705,0.14089 0.0194,0.31459 0.0239,0.47209 0.0106,0.37654 0.0223,1.67698 0.0254,1.97424 0.0109,1.8168 0.0473,3.64383 -0.24257,5.44394 -0.19556,1.40063 1.78523,1.67719 1.98079,0.27657 z" />
    <path
       id="path15"
       style="fill:#f9f9f9;stroke-width:0.264583"
       d="m 103.18078,114.06384 c -0.0107,0.0389 -0.0221,0.08 -0.032,0.11679 0.002,-1.2e-4 0.004,1.2e-4 0.006,0 0.009,-0.0381 0.0156,-0.0652 0.0279,-0.11421 -4.4e-4,-8.9e-4 -0.001,-0.002 -0.002,-0.003 z" />
    <path
       style="fill:#f9f9f9;stroke-width:0.264583"
       id="path19"
       d="m 101.47882,125.78429 c 0.0253,-1.59875 0.0883,-3.19617 0.14744,-4.79392 0.0235,-1.40213 0.15042,-2.79861 0.34033,-4.18713 0.0592,-0.3744 0.12103,-0.75647 0.25004,-1.11512 0.0238,-0.0662 0.12552,-0.24919 0.10867,-0.1809 -0.01,0.0391 -0.0378,0.071 -0.0568,0.1065 -0.50871,0.45985 -0.81428,-0.0846 -0.27742,0.62447 0.0862,0.11389 0.16481,0.23338 0.24722,0.35007 0.27482,0.50453 0.80903,1.05794 0.7209,1.67914 -0.0922,0.40625 -0.38376,0.74186 -0.64324,1.05615 -0.2576,0.2915 -0.59835,0.48835 -0.9026,0.72664 -0.42651,0.41873 -0.62122,0.52238 -0.19979,1.5402 0.10474,0.25297 0.46999,0.28955 0.72881,0.3789 0.21273,0.0734 0.45158,-0.001 0.67449,0.0296 0.0915,0.0127 0.18066,0.0382 0.27099,0.0573 0.50876,0.16248 0.73544,0.36227 0.82339,0.88507 0.0723,0.96457 -0.44753,1.74998 -1.03207,2.46317 -0.0212,0.0206 -0.49903,0.55437 -0.67848,0.53342 -0.0853,-0.01 0.13223,-0.10975 0.19835,-0.16463 -1.4137,-0.0382 -1.46779,1.96103 -0.0541,1.99927 v 0 c 0.30859,-0.0483 0.63259,-0.0372 0.92576,-0.14495 0.43776,-0.16091 0.86565,-0.66625 1.17474,-0.97942 0.17746,-0.22844 0.37069,-0.44545 0.53237,-0.68532 0.71381,-1.05905 1.07192,-2.29145 0.85909,-3.56172 -0.0641,-0.20061 -0.1071,-0.40917 -0.19216,-0.60181 -0.40794,-0.92377 -1.24885,-1.46384 -2.19642,-1.71033 -0.17142,-0.0289 -0.34163,-0.0663 -0.51428,-0.0866 -1.63864,-0.19306 1.88093,0.603 -0.0828,1.61866 0.41741,-0.33208 0.8862,-0.60575 1.21679,-1.03616 0.5502,-0.68439 1.0466,-1.41349 1.0911,-2.32139 -0.007,-0.17409 0.002,-0.34944 -0.0202,-0.52227 -0.10952,-0.86217 -0.62267,-1.60537 -1.076,-2.31924 -0.66027,-0.90904 -1.24664,-1.78875 -2.53005,-1.52993 -0.14866,0.03 -0.26265,0.1517 -0.39397,0.22755 -0.10506,0.11213 -0.22168,0.21446 -0.31517,0.33641 -0.44452,0.57976 -0.49589,1.39273 -0.638928,2.07702 -0.197694,1.45372 -0.332031,2.91554 -0.357304,4.38338 -0.05855,1.58206 -0.122828,3.16379 -0.145151,4.74691 -0.08555,1.41163 1.910783,1.53261 1.996333,0.12099 z" />
    <path
       style="fill:#f9f9f9;stroke-width:0.264583"
       id="path20"
       d="m 120.7382,130.28233 c -0.51902,-0.28361 -1.00589,-0.6321 -1.46068,-1.00968 0.0142,0.003 0.0285,0.005 0.0427,0.008 -0.84352,-1.13511 -2.4488,0.0578 -1.60528,1.19292 v 0 c 0.0978,0.11499 0.19554,0.22998 0.29331,0.34497 0.61596,0.50182 1.26717,0.97896 1.98694,1.32091 1.31301,0.52536 2.05599,-1.33152 0.74298,-1.85688 z" />
  </g>
</svg>
